<mxfile host="app.diagrams.net" modified="2022-01-17T05:38:56.187Z" agent="5.0 (Windows NT 10.0; Win64; x64) AppleWebKit/537.36 (KHTML, like Gecko) Chrome/97.0.4692.71 Safari/537.36" etag="XbGe483GbNEtZRQL2yb_" version="16.2.4" type="github">
  <diagram id="PX42nTdxcTcb5-qvnuS5" name="Page-1">
    <mxGraphModel dx="1038" dy="539" grid="1" gridSize="10" guides="1" tooltips="1" connect="1" arrows="1" fold="1" page="1" pageScale="1" pageWidth="827" pageHeight="1169" math="0" shadow="0">
      <root>
        <mxCell id="0" />
        <mxCell id="1" parent="0" />
        <mxCell id="B9r1FfOHDz0ZaS_kpWSe-5" value="" style="edgeStyle=orthogonalEdgeStyle;rounded=0;orthogonalLoop=1;jettySize=auto;html=1;fontSize=20;" edge="1" parent="1" source="B9r1FfOHDz0ZaS_kpWSe-1" target="B9r1FfOHDz0ZaS_kpWSe-2">
          <mxGeometry relative="1" as="geometry" />
        </mxCell>
        <mxCell id="B9r1FfOHDz0ZaS_kpWSe-1" value="&lt;font style=&quot;font-size: 20px&quot;&gt;用户点击开始计算&lt;/font&gt;" style="rounded=0;whiteSpace=wrap;html=1;" vertex="1" parent="1">
          <mxGeometry x="329" y="10" width="170" height="50" as="geometry" />
        </mxCell>
        <mxCell id="B9r1FfOHDz0ZaS_kpWSe-4" value="" style="edgeStyle=orthogonalEdgeStyle;rounded=0;orthogonalLoop=1;jettySize=auto;html=1;fontSize=20;" edge="1" parent="1" source="B9r1FfOHDz0ZaS_kpWSe-2" target="B9r1FfOHDz0ZaS_kpWSe-3">
          <mxGeometry relative="1" as="geometry" />
        </mxCell>
        <mxCell id="B9r1FfOHDz0ZaS_kpWSe-2" value="后端代码(python)" style="rounded=0;whiteSpace=wrap;html=1;fontSize=20;" vertex="1" parent="1">
          <mxGeometry x="351" y="90" width="126" height="60" as="geometry" />
        </mxCell>
        <mxCell id="B9r1FfOHDz0ZaS_kpWSe-7" value="" style="edgeStyle=orthogonalEdgeStyle;rounded=0;orthogonalLoop=1;jettySize=auto;html=1;fontSize=20;" edge="1" parent="1" source="B9r1FfOHDz0ZaS_kpWSe-3" target="B9r1FfOHDz0ZaS_kpWSe-6">
          <mxGeometry relative="1" as="geometry" />
        </mxCell>
        <mxCell id="B9r1FfOHDz0ZaS_kpWSe-3" value="新建工作文件夹并移动文件必要文件&amp;nbsp;" style="rounded=0;whiteSpace=wrap;html=1;fontSize=20;" vertex="1" parent="1">
          <mxGeometry x="316" y="190" width="196" height="60" as="geometry" />
        </mxCell>
        <mxCell id="B9r1FfOHDz0ZaS_kpWSe-9" value="" style="edgeStyle=orthogonalEdgeStyle;rounded=0;orthogonalLoop=1;jettySize=auto;html=1;fontSize=20;" edge="1" parent="1" source="B9r1FfOHDz0ZaS_kpWSe-6" target="B9r1FfOHDz0ZaS_kpWSe-8">
          <mxGeometry relative="1" as="geometry" />
        </mxCell>
        <mxCell id="B9r1FfOHDz0ZaS_kpWSe-6" value="生成XMl输入文件" style="whiteSpace=wrap;html=1;fontSize=20;rounded=0;" vertex="1" parent="1">
          <mxGeometry x="321" y="280" width="186" height="60" as="geometry" />
        </mxCell>
        <mxCell id="B9r1FfOHDz0ZaS_kpWSe-15" value="" style="edgeStyle=orthogonalEdgeStyle;rounded=0;orthogonalLoop=1;jettySize=auto;html=1;fontSize=20;" edge="1" parent="1" source="B9r1FfOHDz0ZaS_kpWSe-8" target="B9r1FfOHDz0ZaS_kpWSe-14">
          <mxGeometry relative="1" as="geometry" />
        </mxCell>
        <mxCell id="B9r1FfOHDz0ZaS_kpWSe-19" value="" style="edgeStyle=orthogonalEdgeStyle;rounded=0;orthogonalLoop=1;jettySize=auto;html=1;fontSize=20;" edge="1" parent="1" source="B9r1FfOHDz0ZaS_kpWSe-8" target="B9r1FfOHDz0ZaS_kpWSe-18">
          <mxGeometry relative="1" as="geometry" />
        </mxCell>
        <mxCell id="B9r1FfOHDz0ZaS_kpWSe-8" value="创建进程开始计算" style="whiteSpace=wrap;html=1;fontSize=20;rounded=0;" vertex="1" parent="1">
          <mxGeometry x="326" y="370" width="176" height="60" as="geometry" />
        </mxCell>
        <mxCell id="B9r1FfOHDz0ZaS_kpWSe-11" style="edgeStyle=orthogonalEdgeStyle;rounded=0;orthogonalLoop=1;jettySize=auto;html=1;entryX=0.567;entryY=-0.01;entryDx=0;entryDy=0;fontSize=20;entryPerimeter=0;" edge="1" parent="1" target="B9r1FfOHDz0ZaS_kpWSe-10">
          <mxGeometry relative="1" as="geometry">
            <mxPoint x="320" y="310" as="sourcePoint" />
          </mxGeometry>
        </mxCell>
        <mxCell id="B9r1FfOHDz0ZaS_kpWSe-12" value="" style="edgeStyle=orthogonalEdgeStyle;rounded=0;orthogonalLoop=1;jettySize=auto;html=1;fontSize=20;" edge="1" parent="1" source="B9r1FfOHDz0ZaS_kpWSe-10" target="B9r1FfOHDz0ZaS_kpWSe-8">
          <mxGeometry relative="1" as="geometry" />
        </mxCell>
        <mxCell id="B9r1FfOHDz0ZaS_kpWSe-10" value="创建进程监测文件变动" style="rounded=0;whiteSpace=wrap;html=1;fontSize=20;" vertex="1" parent="1">
          <mxGeometry y="370" width="210" height="60" as="geometry" />
        </mxCell>
        <mxCell id="B9r1FfOHDz0ZaS_kpWSe-17" value="" style="edgeStyle=orthogonalEdgeStyle;rounded=0;orthogonalLoop=1;jettySize=auto;html=1;fontSize=20;" edge="1" parent="1" source="B9r1FfOHDz0ZaS_kpWSe-14" target="B9r1FfOHDz0ZaS_kpWSe-16">
          <mxGeometry relative="1" as="geometry" />
        </mxCell>
        <mxCell id="B9r1FfOHDz0ZaS_kpWSe-14" value="计算完成后清理过程文件，提取数据至另一个文件夹" style="whiteSpace=wrap;html=1;fontSize=20;rounded=0;" vertex="1" parent="1">
          <mxGeometry x="286" y="470" width="256" height="60" as="geometry" />
        </mxCell>
        <mxCell id="B9r1FfOHDz0ZaS_kpWSe-16" value="数据处理&amp;nbsp; &amp;nbsp; 画图等" style="whiteSpace=wrap;html=1;fontSize=20;rounded=0;" vertex="1" parent="1">
          <mxGeometry x="354" y="580" width="120" height="60" as="geometry" />
        </mxCell>
        <mxCell id="B9r1FfOHDz0ZaS_kpWSe-20" style="edgeStyle=orthogonalEdgeStyle;rounded=0;orthogonalLoop=1;jettySize=auto;html=1;entryX=1;entryY=0.25;entryDx=0;entryDy=0;fontSize=20;" edge="1" parent="1" source="B9r1FfOHDz0ZaS_kpWSe-18" target="B9r1FfOHDz0ZaS_kpWSe-1">
          <mxGeometry relative="1" as="geometry">
            <Array as="points">
              <mxPoint x="665" y="23" />
            </Array>
          </mxGeometry>
        </mxCell>
        <mxCell id="B9r1FfOHDz0ZaS_kpWSe-18" value="生成一个websocket连接返回给用户" style="whiteSpace=wrap;html=1;fontSize=20;rounded=0;" vertex="1" parent="1">
          <mxGeometry x="570" y="370" width="190" height="60" as="geometry" />
        </mxCell>
      </root>
    </mxGraphModel>
  </diagram>
</mxfile>
